@startuml
'https://plantuml.com/class-diagram
class Car {
    - make: String
    - model: String
    + accelerate(): void
    + brake(): void
}
abstract class AbstractList
abstract AbstractCollection
interface List
interface Collection

List <|-- AbstractList
Collection <|-- AbstractCollection

Collection <|- List
AbstractCollection <|- AbstractList
AbstractList <|-- ArrayList

class ArrayList {
Object[] elementData
size()
}

enum TimeUnit {
DAYS
HOURS
MINUTES
}

@enduml